# xmcd
#
# Track frame offsets:
#	150
#	14275
#	41742
#	62497
#	77967
#	95857
#	113825
#	134642
#	157690
#	206627
#	238955
#
# Disc length: 3753 seconds
#
# Revision: 0
# Processed by: cddbd v1.4PL0 Copyright (c) Steve Scherf et al.
# Submitted via: audiograbber 1.82.00
#
DISCID=970ea70b
DTITLE=Bluespumpm - Bluespumpm Live With Friends
DYEAR=1991
DGENRE=Blues
TTITLE0=Wuffi Blues
TTITLE1=It's A Shame
TTITLE2=Crazy Mood
TTITLE3=Our Home
TTITLE4=First Meeting
TTITLE5=Tribut für'n Helmut
TTITLE6=Song
TTITLE7=Oh Baby
TTITLE8=Zenit
TTITLE9=My Baby Is Crying
TTITLE10=Last Boogie
EXTD=
EXTT0=
EXTT1=
EXTT2=
EXTT3=
EXTT4=
EXTT5=
EXTT6=
EXTT7=
EXTT8=
EXTT9=
EXTT10=
PLAYORDER=
